<svg width="523" height="342" viewBox="0 0 523 342" fill="none" xmlns="http://www.w3.org/2000/svg">
<path d="M522.891 9.95387C523.001 9.13251 523.007 8.3169 522.88 7.51277C522.862 7.39215 522.874 7.27728 522.851 7.15666C522.659 6.22042 522.281 5.33589 521.788 4.50304C521.736 4.41114 521.73 4.3135 521.677 4.2216C521.59 4.08375 521.451 4.01482 521.358 3.88272C521.161 3.60702 521.01 3.29685 520.772 3.04413C520.475 2.72248 520.115 2.48698 519.784 2.21703C519.604 2.07343 519.448 1.90686 519.262 1.7805C518.484 1.24633 517.636 0.838523 516.73 0.580054C516.567 0.534104 516.405 0.528361 516.242 0.493899C515.476 0.321586 514.692 0.258405 513.896 0.298611C513.629 0.310099 513.379 0.333074 513.112 0.367537C512.886 0.401999 512.653 0.379023 512.427 0.424973L7.21667 112.176C3.66859 112.962 0.985747 115.846 0.486343 119.407C-0.00725296 122.968 1.78711 126.466 4.98678 128.166L141.585 200.888L184.133 335.062C184.18 335.206 184.278 335.309 184.331 335.447C184.453 335.768 184.633 336.056 184.795 336.366C185.138 337.021 185.533 337.618 186.02 338.158C186.148 338.301 186.195 338.485 186.334 338.617C186.462 338.738 186.624 338.778 186.758 338.893C187.333 339.387 187.96 339.783 188.645 340.117C188.918 340.249 189.156 340.421 189.435 340.519C190.387 340.869 191.386 341.093 192.437 341.093C192.501 341.093 192.565 341.093 192.629 341.093C193.668 341.07 194.655 340.84 195.585 340.478C195.823 340.386 196.02 340.226 196.247 340.117C196.984 339.755 197.664 339.318 198.273 338.767C198.389 338.663 198.54 338.629 198.651 338.514L268.387 268.388L402.994 340.053C404.277 340.737 405.7 341.087 407.123 341.087C408.214 341.087 409.318 340.886 410.357 340.473C412.75 339.531 414.596 337.578 415.403 335.154L522.595 11.5219C522.676 11.2692 522.682 11.005 522.74 10.7465C522.804 10.4823 522.856 10.2238 522.891 9.95387ZM450.036 31.8835L148.914 185.236L33.807 123.95L450.036 31.8835ZM431.948 60.4817L214.144 225.735L214.103 225.781C213.453 226.281 212.89 226.896 212.396 227.585C212.291 227.728 212.193 227.872 212.1 228.021C212.001 228.182 211.873 228.32 211.78 228.487C211.467 229.061 211.24 229.658 211.072 230.261C211.066 230.29 211.043 230.313 211.037 230.342L191.769 301.605L159.331 199.314L431.948 60.4817ZM209.376 303.167L225.015 245.316L252.406 259.899L209.376 303.167ZM402.082 320.025L235.432 231.301L497.271 32.636L402.082 320.025Z" fill="white"/>
</svg>
